<svg xmlns="http://www.w3.org/2000/svg" viewBox="0 0 59.84 60"><defs><style>.cls-1{fill:#d4bb96;fill-rule:evenodd;}</style></defs><title>Ресурс 1</title><g id="Слой_2" data-name="Слой 2"><g id="Слой_1-2" data-name="Слой 1"><path class="cls-1" d="M21.72,25.28a6.88,6.88,0,0,0-1.69,2c.59,2.34.19-1.53.67,2.38a3.38,3.38,0,0,0,.25,1c.54,1.93-.71,2.25,2.22,2.26S24.63,36,29.92,36a5.46,5.46,0,0,0,4.82-3.06c3.5,0,3.19.54,3.72-3.23.19-1.34-.28-.73.26-1.74.33-.62.11.38.37-.65-.79-1.58-1.48-1.21-1.34-2.79.21-2.34-1-2.69-1.53-4.64-1.22-4.4-3.42-3.15-6.56-3.05-3.72.11-5-1.79-6.85,3.46a9.24,9.24,0,0,1-.56,1.2c-.26.56-.38.83-.63,1.4A1.85,1.85,0,0,0,21.33,24C21.32,24.76,21.58,24.88,21.72,25.28Z"/><path class="cls-1" d="M21.23,14.55c-.84-3.83-1.06-5.72,3.11-9C26.11,4.2,27.57,1.92,29.2.77L34.36,5c3.18,2.41,4,3,4,7a5.09,5.09,0,0,1-.72,2.55c-2-.49-5.78-4-12.64-1.63a9.76,9.76,0,0,0-1.92.78c-.72.43-.86.77-1.85.85Zm-1-3.32a7.25,7.25,0,0,0,1,4.34c5.72-4,10.56-3.53,16.41-.25a6.16,6.16,0,0,0,1.29-4.92A7.3,7.3,0,0,0,36.5,6.06L31,1.64C30.25,1,29.87.48,29.2,0c-1,.7-2.86,3.31-4.93,5C22.61,6.36,20.27,8,20.27,11.23Z"/><path class="cls-1" d="M9.89,1.53c1.41.13,2.9,1,4.59,1S17.06,2,19.78,2a11.43,11.43,0,0,1,3.38.77C22,4.54,17.6,5.43,18.1,11.74c-1.66,0-3-1-6.69,1.1a5.79,5.79,0,0,0-1.7,1.53C8.27,16,8.44,16.61,8.44,12.77c0-1.64,3.32-7.11,1.45-11.24Zm0,3.07c0,5-2.17,5.82-2.17,8.93a17.79,17.79,0,0,0,.72,3.07c.83-.59,2.76-4.34,6.28-4.34a11.35,11.35,0,0,1,3.86.25c0-3.34,0-4.41,1.51-6.31A9.64,9.64,0,0,1,22,4.41c.78-.6,1.81-.83,2.35-1.6C21.57,2.12,21.68.92,17,1.68c-5,.8-5.33-.69-7.86-.91.18.84.3.75.51,1.75A8.77,8.77,0,0,1,9.89,4.6Z"/><path class="cls-1" d="M11.34,38.55A7.77,7.77,0,0,0,12,41.92c.43,1.12,1,1.57,1.25,2.51C7.44,43.91,8.66,39.32,1,39.32,2,37.2,3,35.9,3.39,33c.25-2,.55-5.34,2.4-6.65.63,1.38,2,7.29,6.76,7.4a9.91,9.91,0,0,0-1.21,4.85ZM0,39.83c3.42,0,5,.41,7.1,1.93.93.67,1.43,1.36,2.41,2.05a5.45,5.45,0,0,0,4.73.87c-.21-.83-1.05-1.51-1.54-2.46a9.12,9.12,0,0,1,.57-8.77c-1-.51-3.28-.39-4.94-2.69A10.08,10.08,0,0,1,6.27,25H5.79c-.35,1.38-2.52,2.27-2.89,7.41C2.64,36,1.23,37.38,0,39.83Z"/><path class="cls-1" d="M35.47,3.32C36.63,3,37,2.55,38.61,2.55c2,0,6,1.76,9.89-1,0,3.37-.12,4.47.86,7a12.87,12.87,0,0,1,1,3c.12,1.1,0,2.89,0,4.06-2.64-1.86-3.4-4.8-9.41-3.31,0-3.46-2.33-7.64-5.55-8.43V3.32Zm8.2-.77c-3.77,0-5-1.19-7.68,0A2.22,2.22,0,0,0,34.5,4.08c3.56.32,6,4.69,6,8.94,2.49-.61,5.19-1.55,8.14,1.59a13.86,13.86,0,0,0,2,2C52.35,9,49,11.22,49,2.3A15.51,15.51,0,0,1,49.22.51C48.25.78,46.84,2.55,43.67,2.55Z"/><path class="cls-1" d="M46.81,32.68a9.09,9.09,0,0,0,4-2.88c1.38-1.73,1.47-2.86,2-5.29,2.44,1.73,2,4.35,2.52,6.53.87,3.63,2.16,4.23,3.27,6a11.91,11.91,0,0,0-5.85,3,14.42,14.42,0,0,1-2.45,2,10,10,0,0,1-3.52,1.12c2.28-4.57,1.92-6.63,0-10.47Zm-1-.25C47.46,35,47.77,34.5,47.77,38c0,3.07-1.62,4.47-1.93,5.87,3.74-.32,5-1.66,7-3.32,2.77-2.28,3.25-2.39,7-3.31a7.06,7.06,0,0,0-1.15-1.09,6.43,6.43,0,0,1-1-1.2C54.5,30.3,56.48,27.68,54,24.82c-2.69-3.09-1-.12-2.92,3.7C50.32,30,47.68,32.26,45.84,32.43Z"/><path class="cls-1" d="M31.61,59c-.63-.49-1.36-1.83-2.11-2.62-3-3.15-6.81-3.75-7.54-7.08,3.46,0,6.33.52,8.92-3.58.91.35.07,0,.72.52l2,1.68c1.8,1.15,5,1.56,6.91.61-.74,3.32-2.74,3.28-4.83,4.85-1.44,1.08-3.92,3.33-4.1,5.62ZM24.85,48.77,21,48.51c.62,2.8,3.09,4.67,5.31,5.87a10,10,0,0,1,3,2.49c1.64,1.73,1.48,2.82,2.59,3.13.1-4.83,6.61-7.36,7.67-8.48a7,7,0,0,0,1.74-3.78c-3,.73-5.33,1.86-9.1-1.6-.68-.62-.67-1-1.28-1.46C29.56,46.77,28.14,48.77,24.85,48.77Z"/><path class="cls-1" d="M14.24,38.3c0-2.46,1.14-4.68,3.13-4.85C18.05,36.52,23,41.11,28,41.11H29.2c0,5.72-5.87,5.35-8.39,5.93-1.14.26-2.47.66-3.68,1-.05-2.59-2.89-6.78-2.89-9.7Zm-.49-.51a7.66,7.66,0,0,0,1,4.34c3.8,9-.88,6.36,8.87,5,3.37-.46,6.25-2.25,6.34-6.56-5.15,0-7.76-1.15-10.79-4.93a20.22,20.22,0,0,1-1.76-3A5.43,5.43,0,0,0,13.75,37.79Z"/><path class="cls-1" d="M15.44,26.55c0,4.14,2.09,5.11-.24,5.11a5.21,5.21,0,0,1-4.53-2.36c-.7-1-1.54-3.37-2.42-4.84l-1.74-3a27.28,27.28,0,0,0,2.23-1.73C13,16,14.66,13.13,19.54,16.6a29.87,29.87,0,0,0-2.74,4.25,16.24,16.24,0,0,0-1.36,5.7ZM5.79,21.19a17.14,17.14,0,0,0,1.83,3.17,22.78,22.78,0,0,1,1.65,3.36c1.39,3.64,4.09,5.07,7.62,4.19-.21-2.65-2.07-5.77.72-11.49a12.65,12.65,0,0,1,1.24-2c.52-.73,1-1.17,1.42-1.82-1.66-1.18-1.8-2.05-4.59-2.05C11.81,14.55,8.67,20.38,5.79,21.19Z"/><path class="cls-1" d="M39.57,15.83c1.64-.46,1-1.28,4.1-1.28,2.85,0,5.45,3.94,9.17,4.85a70.08,70.08,0,0,0-2.58,7c-.87,2.37-2.39,4.51-5.14,4.51-.91,0-.46-.16-1.45-.25.33-4.12,1.62-7.46-2.46-12.71-1.32-1.7-.88-.57-1.64-2.1Zm-.72.26c.51.73,1.89,1.39,3.3,4.16s2.19,7.58.8,10.64c1.87.46,3,1.25,5.66-.9,1.93-1.55,2.82-5.78,4.09-8.95a15.23,15.23,0,0,0,.86-1.89c-1.14-.1-3.85-1.86-4.82-2.55-3-2.14-2.62-2.56-6-2.56A5.44,5.44,0,0,0,38.85,16.09Z"/><path class="cls-1" d="M44.15,46.72a36.12,36.12,0,0,0-4.1-.25c-3.41,0-8.68-.15-8.68-5.36,4.3-1.06,7.73-1.49,10.72-6.78a17.13,17.13,0,0,0,.86-1.9c2.13.6,2.89,3.13,2.89,5.61,0,1.4-1.69,5.53-1.69,8.68ZM30.88,40.6c0,3.46,1.87,5.43,4.4,6.07,2.77.69,6.42.1,9.36.82,0-4.64,1.69-6.56,1.69-10.72,0-2.19-2-4.71-3.62-5.11-.27.6-.43,1.19-.72,1.79a16,16,0,0,1-1,1.74,10.28,10.28,0,0,1-2.54,2.68,11.24,11.24,0,0,1-3.32,1.84A41.06,41.06,0,0,1,30.88,40.6Z"/></g></g></svg>